<?xml version="1.0" encoding="utf-8"?>
<!-- Generator: Adobe Illustrator 24.0.2, SVG Export Plug-In . SVG Version: 6.00 Build 0)  -->
<svg version="1.1" id="Layer_1" xmlns="http://www.w3.org/2000/svg" xmlns:xlink="http://www.w3.org/1999/xlink" x="0px" y="0px"
	 viewBox="0 0 64 64" style="enable-background:new 0 0 64 64;" xml:space="preserve">
<style type="text/css">
	.st0{fill:#E0C389;}
	.st1{fill:#FFFFFF;}
</style>
<polygon class="st0" points="34.7,44.1 34.7,4.8 32,3 29.3,4.8 29.3,44.1 32,47.2 "/>
<polygon class="st0" points="24.1,10.2 18.6,13.4 18.6,33.8 24.1,39.3 "/>
<polygon class="st0" points="45.7,13.5 40.3,10.4 40.3,38.9 45.7,33.5 "/>
<polygon class="st1" points="54.9,18.9 54.9,48.7 50.8,52.8 48.2,55.5 54.9,55.5 54.9,61 34.7,61 37.3,58.4 38.5,57.2 40.3,55.5 
	44,51.7 45.7,50 49.4,46.3 49.4,41.2 45.7,44.9 40.3,50.4 35.9,54.7 32,58.7 14.6,41.2 14.6,46.3 23.7,55.5 25.5,57.2 26.7,58.4 
	29.3,61 9.1,61 9.1,55.5 15.8,55.5 9.1,48.7 9.1,18.9 14.5,15.7 14.5,33.3 14.6,33.3 32,50.8 34.7,48 49.4,33.3 49.5,33.3 
	49.5,15.7 51,16.6 "/>
</svg>
