<?xml version="1.0" encoding="utf-8"?>
<!-- Generator: Adobe Illustrator 24.0.2, SVG Export Plug-In . SVG Version: 6.00 Build 0)  -->
<svg version="1.1" id="Layer_1" xmlns="http://www.w3.org/2000/svg" xmlns:xlink="http://www.w3.org/1999/xlink" x="0px" y="0px"
	 viewBox="0 0 200 200" style="enable-background:new 0 0 200 200;" xml:space="preserve">
<style type="text/css">
	.st0{fill:#022648;}
	.st1{fill:#E0C389;}
</style>
<g>
	<g>
		<path class="st0" d="M80.4,85.6h2.7l4.3,13.2H85l-2-7c-0.4-1.4-0.8-2.9-1.2-4.4h-0.1c-0.4,1.5-0.8,3-1.2,4.4l-2,7h-2.4L80.4,85.6z
			 M78.7,93.4h6.2v1.8h-6.2V93.4z"/>
	</g>
	<g>
		<path class="st0" d="M89.1,85.6h2.3v11.2h5.5v2h-7.8V85.6z"/>
	</g>
	<g>
		<path class="st0" d="M99.2,85.6h2.7l2.3,6.5c0.3,0.8,0.6,1.7,0.8,2.6h0.1c0.3-0.9,0.5-1.8,0.8-2.6l2.3-6.5h2.7v13.2h-2.1v-6
			c0-1.2,0.2-3,0.3-4.2H109l-1.1,3.1l-2.2,5.9h-1.4l-2.2-5.9l-1.1-3.1h-0.1c0.1,1.2,0.3,3,0.3,4.2v6h-2.1V85.6z"/>
	</g>
	<g>
		<path class="st0" d="M116.9,85.6h2.7l4.3,13.2h-2.5l-2-7c-0.4-1.4-0.8-2.9-1.2-4.4h-0.1c-0.4,1.5-0.8,3-1.2,4.4l-2,7h-2.4
			L116.9,85.6z M115.1,93.4h6.2v1.8h-6.2V93.4z"/>
	</g>
	<g>
		<path class="st0" d="M125.5,85.6h2.3V91h5.3v-5.3h2.3v13.2h-2.3V93h-5.3v5.9h-2.3V85.6z"/>
	</g>
	<g>
		<path class="st0" d="M141.5,85.6h2.7l4.3,13.2h-2.5l-2-7c-0.4-1.4-0.8-2.9-1.2-4.4h-0.1c-0.4,1.5-0.8,3-1.2,4.4l-2,7h-2.4
			L141.5,85.6z M139.8,93.4h6.2v1.8h-6.2V93.4z"/>
	</g>
	<g>
		<path class="st0" d="M150.2,85.6h4.5c2.7,0,4.9,1,4.9,3.9c0,2.8-2.1,4.1-4.9,4.1h-2.1v5.2h-2.3V85.6z M154.4,91.8
			c1.8,0,2.8-0.8,2.8-2.3c0-1.5-1-2-2.8-2h-1.9v4.3H154.4z M154.2,93.1l1.7-1.4l4.1,7.2h-2.6L154.2,93.1z"/>
	</g>
	<g>
		<path class="st0" d="M164.7,85.6h2.7l4.3,13.2h-2.5l-2-7c-0.4-1.4-0.8-2.9-1.2-4.4H166c-0.4,1.5-0.8,3-1.2,4.4l-2,7h-2.4
			L164.7,85.6z M163,93.4h6.2v1.8H163V93.4z"/>
	</g>
	<g>
		<path class="st0" d="M175.2,87.6h-3.8v-2h10v2h-3.8v11.2h-2.3V87.6z"/>
	</g>
	<g>
		<path class="st0" d="M80.2,104.7h2.6l4.1,12.4h-2.3l-1.9-6.6c-0.4-1.3-0.8-2.7-1.1-4.1h-0.1c-0.3,1.4-0.7,2.8-1.1,4.1l-1.9,6.6
			h-2.3L80.2,104.7z M78.6,112h5.9v1.7h-5.9V112z"/>
	</g>
	<g>
		<path class="st0" d="M88.4,104.7h2.2v10.6h5.2v1.9h-7.4V104.7z"/>
	</g>
	<g>
		<path class="st0" d="M97.9,104.7h2.5l2.2,6.1c0.3,0.8,0.5,1.6,0.8,2.4h0.1c0.3-0.8,0.5-1.7,0.8-2.4l2.2-6.1h2.5v12.4h-2v-5.7
			c0-1.1,0.2-2.8,0.3-4h-0.1l-1,2.9l-2,5.6h-1.3l-2.1-5.6l-1-2.9h-0.1c0.1,1.2,0.3,2.8,0.3,4v5.7h-2V104.7z"/>
	</g>
	<g>
		<path class="st0" d="M111.4,110.9c0-4,2.2-6.4,5.5-6.4c3.2,0,5.5,2.4,5.5,6.4c0,4-2.2,6.5-5.5,6.5
			C113.7,117.4,111.4,114.9,111.4,110.9z M120.1,110.9c0-2.8-1.3-4.5-3.2-4.5c-2,0-3.2,1.7-3.2,4.5c0,2.8,1.3,4.6,3.2,4.6
			C118.9,115.5,120.1,113.7,120.1,110.9z"/>
	</g>
	<g>
		<path class="st0" d="M127,106.6h-3.6v-1.9h9.4v1.9h-3.6v10.6H127V106.6z"/>
	</g>
	<g>
		<path class="st0" d="M134.9,104.7h2.2v5.7h0.1l4.4-5.7h2.4l-3.8,4.9l4.5,7.6h-2.4l-3.4-5.8l-1.8,2.2v3.6h-2.2V104.7z"/>
	</g>
	<g>
		<path class="st0" d="M146.2,104.7h3.3c3.8,0,6.1,2.1,6.1,6.2c0,4.1-2.3,6.3-5.9,6.3h-3.4V104.7z M149.4,115.4
			c2.5,0,3.9-1.4,3.9-4.5c0-3.1-1.4-4.4-3.9-4.4h-1v8.9H149.4z"/>
	</g>
	<g>
		<path class="st0" d="M158.1,104.7h2.5l2.2,6.1c0.3,0.8,0.5,1.6,0.8,2.4h0.1c0.3-0.8,0.5-1.7,0.8-2.4l2.2-6.1h2.5v12.4h-2v-5.7
			c0-1.1,0.2-2.8,0.3-4h-0.1l-1,2.9l-2,5.6h-1.3l-2.1-5.6l-1-2.9h-0.1c0.1,1.2,0.3,2.8,0.3,4v5.7h-2V104.7z"/>
	</g>
	<g>
		<path class="st0" d="M174.7,104.7h2.6l4.1,12.4H179l-1.9-6.6c-0.4-1.3-0.8-2.7-1.1-4.1h-0.1c-0.3,1.4-0.7,2.8-1.1,4.1l-1.9,6.6
			h-2.3L174.7,104.7z M173,112h5.9v1.7H173V112z"/>
	</g>
	<g>
		<path class="st1" d="M79.1,125.1v0.3h-1.6c-0.3,0-0.5,0-0.7-0.1s-0.3-0.2-0.4-0.4c-0.1-0.2-0.1-0.4-0.1-0.7c0-0.3,0-0.5,0.1-0.7
			s0.2-0.3,0.3-0.4s0.4-0.1,0.7-0.1c0.1,0,0.3,0,0.6,0c0.2,0,0.4,0,0.6,0v2.1H79.1z M76.8,124.7c0.1,0.1,0.1,0.2,0.3,0.3
			c0.1,0.1,0.3,0.1,0.5,0.1h0.6v-1.8c-0.3,0-0.5,0-0.7,0c-0.3,0-0.5,0.1-0.6,0.2s-0.2,0.4-0.2,0.7C76.7,124.4,76.7,124.6,76.8,124.7
			z M77.1,122.2h0.4v0.4h-0.4V122.2z M77.7,122.2h0.4v0.4h-0.4V122.2z"/>
		<path class="st1" d="M81.7,123.3c0.2,0.2,0.3,0.5,0.3,1v1.2h-2.8v-0.3h0.8c0-0.3-0.1-0.6-0.1-0.9c0-0.2,0-0.4,0-0.6
			c0-0.2,0.1-0.4,0.1-0.5c0.1,0,0.2-0.1,0.3-0.1c0.1,0,0.3,0,0.5,0C81.2,123,81.5,123.1,81.7,123.3z M80.2,124.7c0,0.2,0,0.3,0,0.4
			h1.3v-0.9c0-0.3-0.1-0.6-0.2-0.7s-0.4-0.2-0.6-0.2c-0.2,0-0.3,0-0.4,0c-0.1,0.3-0.1,0.6-0.1,0.9C80.2,124.4,80.2,124.6,80.2,124.7
			z"/>
		<path class="st1" d="M84.9,125.1v0.3h-2.4v-0.3H84v-0.6c0-0.5-0.1-0.8-0.3-1c-0.2-0.2-0.4-0.3-0.7-0.3h-0.4l0-0.3c0,0,0.1,0,0.2,0
			s0.2,0,0.3,0c0.4,0,0.7,0.1,0.9,0.4c0.2,0.3,0.4,0.7,0.4,1.2v0.6H84.9z"/>
		<path class="st1" d="M84.9,125.1h1.2v0.3h-1.2V125.1z"/>
		<path class="st1" d="M86.1,125.1h1.2v0.3h-1.2V125.1z"/>
		<path class="st1" d="M87.3,125.1h1.2v0.3h-1.2V125.1z"/>
		<path class="st1" d="M88.5,125.1h1.2v0.3h-1.2V125.1z"/>
		<path class="st1" d="M89.7,125.1H91v0.3h-1.2V125.1z"/>
		<path class="st1" d="M91,125.1h1.2v0.3H91V125.1z"/>
		<path class="st1" d="M92.2,125.1h1.2v0.3h-1.2V125.1z"/>
		<path class="st1" d="M93.4,125.1h1.2v0.3h-1.2V125.1z"/>
		<path class="st1" d="M94.6,125.1h1.2v0.3h-1.2V125.1z"/>
		<path class="st1" d="M95.9,125.1h1.2v0.3h-1.2V125.1z"/>
		<path class="st1" d="M97.1,125.1h1.2v0.3h-1.2V125.1z"/>
		<path class="st1" d="M98.3,125.1h1.2v0.3h-1.2V125.1z"/>
		<path class="st1" d="M99.5,125.1h1.2v0.3h-1.2V125.1z"/>
		<path class="st1" d="M100.7,125.1h1.2v0.3h-1.2V125.1z"/>
		<path class="st1" d="M102,125.1h1.2v0.3H102V125.1z"/>
		<path class="st1" d="M103.2,125.1h1.2v0.3h-1.2V125.1z"/>
		<path class="st1" d="M104.4,125.1h1.2v0.3h-1.2V125.1z"/>
		<path class="st1" d="M105.6,125.1h1.2v0.3h-1.2V125.1z"/>
		<path class="st1" d="M106.8,125.1h1.2v0.3h-1.2V125.1z"/>
		<path class="st1" d="M108.1,125.1h1.2v0.3h-1.2V125.1z"/>
		<path class="st1" d="M109.3,125.1h1.2v0.3h-1.2V125.1z"/>
		<path class="st1" d="M110.5,125.1h1.2v0.3h-1.2V125.1z"/>
		<path class="st1" d="M111.7,125.1h1.2v0.3h-1.2V125.1z"/>
		<path class="st1" d="M112.9,125.1h1.2v0.3h-1.2V125.1z"/>
		<path class="st1" d="M114.2,125.1h1.2v0.3h-1.2V125.1z"/>
		<path class="st1" d="M115.4,125.1h1.2v0.3h-1.2V125.1z"/>
		<path class="st1" d="M116.6,125.1h1.2v0.3h-1.2V125.1z"/>
		<path class="st1" d="M117.8,125.1h1.2v0.3h-1.2V125.1z"/>
		<path class="st1" d="M119,125.1h1.2v0.3H119V125.1z"/>
		<path class="st1" d="M123.2,125.1v0.3h-3v-0.3h0.7c-0.1-0.2-0.1-0.4-0.1-0.8c0-0.3,0-0.6,0.1-0.8c0.1-0.2,0.2-0.3,0.4-0.4
			c0.2-0.1,0.4-0.1,0.7-0.1c0.2,0,0.5,0,0.7,0l0.1,0v2.1H123.2z M121.4,125.1h1v-1.8c-0.2,0-0.4,0-0.5,0c-0.2,0-0.4,0-0.5,0.1
			s-0.2,0.2-0.2,0.3c0,0.1-0.1,0.3-0.1,0.6C121.2,124.7,121.3,125,121.4,125.1z M121.3,122.2h0.4v0.4h-0.4V122.2z M121.9,122.2h0.4
			v0.4h-0.4V122.2z"/>
		<path class="st1" d="M125.1,125.1v0.3h-1.8v-0.3h0.7V123h0.4v2.1H125.1z M123.7,122.2h0.4v0.4h-0.4V122.2z M124.3,122.2h0.4v0.4
			h-0.4V122.2z"/>
		<path class="st1" d="M128.4,125.1v0.3h-0.2c-0.1,0-0.1,0-0.2-0.1c-0.1,0-0.1-0.1-0.2-0.1v0.2h-2.8v-0.3h0.8c0-0.3-0.1-0.6-0.1-0.9
			c0-0.2,0-0.4,0-0.6c0-0.2,0.1-0.4,0.1-0.5c0.1,0,0.2-0.1,0.3-0.1c0.1,0,0.3,0,0.5,0c0.4,0,0.7,0.1,0.9,0.3s0.3,0.5,0.3,1v0.7
			c0.1,0.1,0.2,0.2,0.4,0.2H128.4z M126.2,124.7c0,0.2,0,0.3,0,0.4h1.3v-0.9c0-0.3-0.1-0.6-0.2-0.7s-0.4-0.2-0.6-0.2
			c-0.2,0-0.3,0-0.4,0c-0.1,0.3-0.1,0.6-0.1,0.9C126.2,124.4,126.2,124.6,126.2,124.7z"/>
		<path class="st1" d="M129.4,122v3.5h-1v-0.3h0.6V122H129.4z"/>
		<path class="st1" d="M130.3,122h0.4v3.5h-0.4V122z"/>
		<path class="st1" d="M135.5,123v2.4h-1.8c-0.3,0-0.6,0-0.7-0.1s-0.3-0.1-0.4-0.2s-0.1-0.3-0.1-0.5c0-0.2,0.1-0.6,0.2-1.1l0.3,0
			l0,0.4c0,0,0,0.1,0,0.3c0,0.1,0,0.3,0,0.3c0,0.1,0,0.2,0.1,0.3c0.1,0.1,0.2,0.1,0.3,0.2s0.3,0.1,0.6,0.1h1.4V123H135.5z
			 M133.6,122.6h0.4v0.4h-0.4V122.6z M134.2,122.6h0.4v0.4h-0.4V122.6z"/>
		<path class="st1" d="M136.4,122h0.4v3.5h-0.4V122z"/>
		<path class="st1" d="M137.6,126.7c0,0-0.1,0-0.1,0l-0.1,0v-0.3c0.2,0,0.3,0,0.3,0c0.2,0,0.3-0.1,0.4-0.2c0.1-0.1,0.1-0.3,0.1-0.5
			V123h0.4v2.5c0,0.8-0.3,1.2-0.8,1.2C137.7,126.7,137.6,126.7,137.6,126.7z"/>
		<path class="st1" d="M140.2,125.1v0.3h-0.8V122h0.4v3.2H140.2z"/>
		<path class="st1" d="M140.2,125.1h1.2v0.3h-1.2V125.1z"/>
		<path class="st1" d="M141.4,125.1h1.2v0.3h-1.2V125.1z"/>
		<path class="st1" d="M142.6,125.1h1.2v0.3h-1.2V125.1z"/>
		<path class="st1" d="M143.8,125.1h1.2v0.3h-1.2V125.1z"/>
		<path class="st1" d="M145,125.1h1.2v0.3H145V125.1z"/>
		<path class="st1" d="M146.3,125.1h1.2v0.3h-1.2V125.1z"/>
		<path class="st1" d="M147.5,125.1h1.2v0.3h-1.2V125.1z"/>
		<path class="st1" d="M148.7,125.1h1.2v0.3h-1.2V125.1z"/>
		<path class="st1" d="M149.9,125.1h1.2v0.3h-1.2V125.1z"/>
		<path class="st1" d="M151.2,125.1h1.2v0.3h-1.2V125.1z"/>
		<path class="st1" d="M152.4,125.1h1.2v0.3h-1.2V125.1z"/>
		<path class="st1" d="M153.6,125.1h1.2v0.3h-1.2V125.1z"/>
		<path class="st1" d="M154.8,125.1h1.2v0.3h-1.2V125.1z"/>
		<path class="st1" d="M156,125.1h1.2v0.3H156V125.1z"/>
		<path class="st1" d="M157.3,125.1h1.2v0.3h-1.2V125.1z"/>
		<path class="st1" d="M158.5,125.1h1.2v0.3h-1.2V125.1z"/>
		<path class="st1" d="M159.7,125.1h1.2v0.3h-1.2V125.1z"/>
		<path class="st1" d="M160.9,125.1h1.2v0.3h-1.2V125.1z"/>
		<path class="st1" d="M162.1,125.1h1.2v0.3h-1.2V125.1z"/>
		<path class="st1" d="M163.4,125.1h1.2v0.3h-1.2V125.1z"/>
		<path class="st1" d="M164.6,125.1h1.2v0.3h-1.2V125.1z"/>
		<path class="st1" d="M165.8,125.1h1.2v0.3h-1.2V125.1z"/>
		<path class="st1" d="M167,125.1h1.2v0.3H167V125.1z"/>
		<path class="st1" d="M168.2,125.1h1.2v0.3h-1.2V125.1z"/>
		<path class="st1" d="M169.5,125.1h1.2v0.3h-1.2V125.1z"/>
		<path class="st1" d="M170.7,125.1h1.2v0.3h-1.2V125.1z"/>
		<path class="st1" d="M175.8,125.1v0.3h-3.9v-0.3h0.6v-0.4c0-0.2,0-0.3,0.1-0.4c0.1-0.1,0.2-0.2,0.3-0.3c0.1-0.1,0.3-0.1,0.4-0.1
			c0.2,0,0.3,0,0.4,0.1c0.1,0.1,0.2,0.2,0.3,0.3c0.1,0.1,0.1,0.3,0.1,0.5v0.4h0.7v-0.7c0-0.5-0.1-0.8-0.4-1
			c-0.2-0.2-0.5-0.3-0.9-0.3c-0.1,0-0.3,0-0.5,0c-0.2,0-0.4,0.1-0.6,0.1l0-0.3c0.4-0.1,0.8-0.2,1.1-0.2c0.5,0,0.8,0.1,1.1,0.4
			c0.3,0.3,0.5,0.7,0.5,1.3v0.7H175.8z M173,124.3c-0.1,0.1-0.1,0.2-0.1,0.4v0.4h1v-0.4c0-0.1,0-0.3-0.1-0.4
			c-0.1-0.1-0.2-0.1-0.4-0.1S173.1,124.2,173,124.3z"/>
		<path class="st1" d="M179.2,125.1v0.3H179c-0.1,0-0.1,0-0.2-0.1c-0.1,0-0.1-0.1-0.2-0.1v0.2h-2.8v-0.3h0.8c0-0.3-0.1-0.6-0.1-0.9
			c0-0.2,0-0.4,0-0.6c0-0.2,0.1-0.4,0.1-0.5c0.1,0,0.2-0.1,0.3-0.1c0.1,0,0.3,0,0.5,0c0.4,0,0.7,0.1,0.9,0.3s0.3,0.5,0.3,1v0.7
			c0.1,0.1,0.2,0.2,0.4,0.2H179.2z M176.9,124.7c0,0.2,0,0.3,0,0.4h1.3v-0.9c0-0.3-0.1-0.6-0.2-0.7s-0.4-0.2-0.6-0.2
			c-0.2,0-0.3,0-0.4,0c-0.1,0.3-0.1,0.6-0.1,0.9C176.9,124.4,176.9,124.6,176.9,124.7z"/>
		<path class="st1" d="M180.2,122v3.5h-1v-0.3h0.6V122H180.2z"/>
		<path class="st1" d="M181,122h0.4v3.5H181V122z"/>
	</g>
	<g>
		<polygon class="st1" points="44.7,112.3 44.7,72.3 41.9,70.5 39.1,72.3 39.1,112.3 41.9,115.4 		"/>
	</g>
	<g>
		<polygon class="st0" points="18.6,104.1 18.6,105.3 18.6,106 24.1,106 24.1,105.3 24.1,101.4 24.1,97.7 24.1,83.4 18.6,86.6 
			18.6,92.2 		"/>
	</g>
	<g>
		<polygon class="st1" points="33.8,77.8 28.3,81 28.3,101.8 33.8,107.4 		"/>
	</g>
	<g>
		<polygon class="st1" points="55.8,81.2 50.3,78 50.3,107 55.8,101.5 		"/>
	</g>
	<g>
		<polygon class="st0" points="61.3,84.4 59.7,83.4 59.7,106.1 59.7,106.8 65.2,106.8 65.2,106.1 65.2,86.6 		"/>
	</g>
	<g>
		<path class="st0" d="M65.2,117v-12.8c0-1.5-1.2-2.8-2.8-2.8h-2.9l-9.3,9.3l-5.6,5.6l-2.8,2.8l-17.7-17.7h-2.9
			c-1.5,0-2.7,1.2-2.7,2.7V117l6.9,6.9h-6.9v5.7h6.9h13.7l-2.7-2.7l-1.1-1.1l-1.8-1.8l-9.3-9.3v-5.1l17.7,17.7l4-4l4.4-4.4l5.5-5.6
			l3.8-3.8v5.1l-3.8,3.8l-1.7,1.7l-3.8,3.8l-1.8,1.8l-1.1,1.1l-2.7,2.7h20.6v-5.7h-6.9l2.7-2.7L65.2,117z"/>
	</g>
</g>
</svg>
