<?xml version="1.0" encoding="utf-8"?>
<!-- Generator: Adobe Illustrator 24.0.2, SVG Export Plug-In . SVG Version: 6.00 Build 0)  -->
<svg version="1.1" id="Layer_1" xmlns="http://www.w3.org/2000/svg" xmlns:xlink="http://www.w3.org/1999/xlink" x="0px" y="0px"
	 viewBox="0 0 309.4 200" style="enable-background:new 0 0 309.4 200;" xml:space="preserve">
<style type="text/css">
	.st0{fill:#022648;}
	.st1{fill:#E0C389;}
</style>
<g>
	<g>
		<path class="st0" d="M117.8,82.1h4.9l7.6,23.4h-4.4l-3.6-12.5c-0.7-2.5-1.4-5.2-2.1-7.7H120c-0.6,2.6-1.3,5.2-2.1,7.7l-3.6,12.5
			h-4.2L117.8,82.1z M114.6,95.9h11v3.3h-11V95.9z"/>
	</g>
	<g>
		<path class="st0" d="M133.1,82.1h4.2V102h9.7v3.5h-13.9V82.1z"/>
	</g>
	<g>
		<path class="st0" d="M151.1,82.1h4.7l4.1,11.5c0.5,1.5,1,3.1,1.5,4.6h0.1c0.5-1.5,1-3.1,1.5-4.6l4.1-11.5h4.7v23.4H168V94.8
			c0-2.2,0.3-5.3,0.5-7.5h-0.1l-1.9,5.4l-3.9,10.5h-2.5l-3.9-10.5l-1.9-5.4h-0.1c0.2,2.2,0.5,5.3,0.5,7.5v10.7h-3.7V82.1z"/>
	</g>
	<g>
		<path class="st0" d="M182.4,82.1h4.9l7.6,23.4h-4.4l-3.6-12.5c-0.7-2.5-1.4-5.2-2.1-7.7h-0.1c-0.6,2.6-1.3,5.2-2.1,7.7l-3.6,12.5
			h-4.2L182.4,82.1z M179.3,95.9h11v3.3h-11V95.9z"/>
	</g>
	<g>
		<path class="st0" d="M197.8,82.1h4.2v9.4h9.5v-9.4h4.2v23.4h-4.2V95.1h-9.5v10.4h-4.2V82.1z"/>
	</g>
	<g>
		<path class="st0" d="M226.1,82.1h4.9l7.6,23.4h-4.4l-3.6-12.5c-0.7-2.5-1.4-5.2-2.1-7.7h-0.1c-0.6,2.6-1.3,5.2-2.1,7.7l-3.6,12.5
			h-4.2L226.1,82.1z M223,95.9h11v3.3h-11V95.9z"/>
	</g>
	<g>
		<path class="st0" d="M241.5,82.1h7.9c4.9,0,8.6,1.7,8.6,7c0,5-3.8,7.3-8.6,7.3h-3.7v9.2h-4.2V82.1z M249,93.1c3.2,0,5-1.3,5-4
			c0-2.7-1.7-3.6-5-3.6h-3.3v7.6H249z M248.6,95.3l3-2.5l7.3,12.7h-4.7L248.6,95.3z"/>
	</g>
	<g>
		<path class="st0" d="M267.3,82.1h4.9l7.6,23.4h-4.4l-3.6-12.5c-0.7-2.5-1.4-5.2-2.1-7.7h-0.1c-0.6,2.6-1.3,5.2-2.1,7.7l-3.6,12.5
			h-4.2L267.3,82.1z M264.1,95.9h11v3.3h-11V95.9z"/>
	</g>
	<g>
		<path class="st0" d="M285.8,85.6h-6.8v-3.5h17.7v3.5H290v19.9h-4.2V85.6z"/>
	</g>
	<g>
		<path class="st0" d="M117.4,115.9h4.6l7.2,22.1H125l-3.4-11.7c-0.7-2.3-1.3-4.8-2-7.3h-0.1c-0.6,2.4-1.3,4.9-2,7.3l-3.4,11.7h-4
			L117.4,115.9z M114.4,128.9h10.4v3.1h-10.4V128.9z"/>
	</g>
	<g>
		<path class="st0" d="M131.8,115.9h3.9v18.8h9.2v3.3h-13.1V115.9z"/>
	</g>
	<g>
		<path class="st0" d="M148.8,115.9h4.4l3.9,10.8c0.5,1.4,0.9,2.9,1.4,4.3h0.1c0.5-1.4,0.9-2.9,1.4-4.3l3.8-10.8h4.4V138h-3.6v-10.1
			c0-2,0.3-5,0.5-7H165l-1.8,5.1l-3.6,9.9h-2.3l-3.6-9.9l-1.8-5.1h-0.1c0.2,2,0.5,5,0.5,7V138h-3.5V115.9z"/>
	</g>
	<g>
		<path class="st0" d="M172.7,126.9c0-7.1,4-11.3,9.7-11.3c5.7,0,9.7,4.2,9.7,11.3c0,7.1-4,11.5-9.7,11.5
			C176.7,138.4,172.7,134,172.7,126.9z M188.2,126.9c0-5-2.2-7.9-5.7-7.9s-5.7,3-5.7,7.9c0,5,2.2,8.1,5.7,8.1
			S188.2,131.8,188.2,126.9z"/>
	</g>
	<g>
		<path class="st0" d="M200.4,119.2H194v-3.3h16.6v3.3h-6.4V138h-3.9V119.2z"/>
	</g>
	<g>
		<path class="st0" d="M214.3,115.9h3.9v10h0.1l7.9-10h4.3l-6.8,8.6l7.9,13.4h-4.3l-6-10.4l-3.2,3.9v6.4h-3.9V115.9z"/>
	</g>
	<g>
		<path class="st0" d="M234.4,115.9h5.9c6.8,0,10.8,3.6,10.8,10.9s-4,11.1-10.5,11.1h-6.1V115.9z M240.1,134.8c4.4,0,7-2.5,7-7.9
			c0-5.4-2.5-7.8-7-7.8h-1.7v15.7H240.1z"/>
	</g>
	<g>
		<path class="st0" d="M255.5,115.9h4.4l3.9,10.8c0.5,1.4,0.9,2.9,1.4,4.3h0.1c0.5-1.4,0.9-2.9,1.4-4.3l3.8-10.8h4.4V138h-3.6v-10.1
			c0-2,0.3-5,0.5-7h-0.1L270,126l-3.6,9.9h-2.3l-3.6-9.9l-1.8-5.1h-0.1c0.2,2,0.5,5,0.5,7V138h-3.5V115.9z"/>
	</g>
	<g>
		<path class="st0" d="M285,115.9h4.6l7.2,22.1h-4.1l-3.4-11.7c-0.7-2.3-1.3-4.8-2-7.3h-0.1c-0.6,2.4-1.3,4.9-2,7.3l-3.4,11.7h-4
			L285,115.9z M282,128.9h10.4v3.1H282V128.9z"/>
	</g>
	<g>
		<path class="st1" d="M115.4,152.1v0.6h-2.9c-0.5,0-0.9-0.1-1.2-0.2s-0.5-0.4-0.6-0.7c-0.1-0.3-0.2-0.7-0.2-1.3
			c0-0.5,0.1-1,0.2-1.3c0.1-0.3,0.3-0.6,0.6-0.7c0.3-0.2,0.7-0.2,1.2-0.2c0.2,0,0.5,0,1,0c0.4,0,0.8,0,1,0.1v3.7H115.4z
			 M111.3,151.5c0.1,0.2,0.2,0.4,0.5,0.5c0.2,0.1,0.5,0.2,0.9,0.2h1.1V149c-0.5,0-0.9-0.1-1.2-0.1c-0.5,0-0.9,0.1-1.1,0.4
			s-0.3,0.7-0.3,1.2C111.1,150.9,111.2,151.2,111.3,151.5z M111.8,146.9h0.7v0.7h-0.7V146.9z M112.9,146.9h0.7v0.7h-0.7V146.9z"/>
		<path class="st1" d="M119.9,148.8c0.3,0.3,0.5,0.9,0.5,1.7v2.2h-5v-0.6h1.4c-0.1-0.5-0.1-1-0.1-1.5c0-0.4,0-0.8,0.1-1.1
			c0-0.4,0.1-0.7,0.2-0.9c0.1-0.1,0.3-0.1,0.6-0.2c0.3,0,0.5-0.1,0.8-0.1C119.1,148.3,119.6,148.5,119.9,148.8z M117.4,151.5
			c0,0.3,0.1,0.5,0.1,0.7h2.3v-1.6c0-0.6-0.1-1-0.4-1.3s-0.6-0.4-1.1-0.4c-0.3,0-0.5,0-0.8,0.1c-0.1,0.5-0.1,1-0.1,1.6
			C117.4,150.9,117.4,151.2,117.4,151.5z"/>
		<path class="st1" d="M125.6,152.1v0.6h-4.3v-0.6h2.8v-1c0-0.9-0.2-1.5-0.5-1.8c-0.3-0.3-0.7-0.5-1.2-0.5h-0.7l0-0.5
			c0.1,0,0.2,0,0.4-0.1s0.3,0,0.5,0c0.6,0,1.2,0.2,1.6,0.7c0.4,0.5,0.6,1.2,0.6,2.2v1H125.6z"/>
		<path class="st1" d="M125.6,152.1h2.2v0.6h-2.2V152.1z"/>
		<path class="st1" d="M127.8,152.1h2.2v0.6h-2.2V152.1z"/>
		<path class="st1" d="M129.9,152.1h2.2v0.6h-2.2V152.1z"/>
		<path class="st1" d="M132.1,152.1h2.2v0.6h-2.2V152.1z"/>
		<path class="st1" d="M134.3,152.1h2.2v0.6h-2.2V152.1z"/>
		<path class="st1" d="M136.4,152.1h2.2v0.6h-2.2V152.1z"/>
		<path class="st1" d="M138.6,152.1h2.2v0.6h-2.2V152.1z"/>
		<path class="st1" d="M140.8,152.1h2.2v0.6h-2.2V152.1z"/>
		<path class="st1" d="M142.9,152.1h2.2v0.6h-2.2V152.1z"/>
		<path class="st1" d="M145.1,152.1h2.2v0.6h-2.2V152.1z"/>
		<path class="st1" d="M147.3,152.1h2.2v0.6h-2.2V152.1z"/>
		<path class="st1" d="M149.4,152.1h2.2v0.6h-2.2V152.1z"/>
		<path class="st1" d="M151.6,152.1h2.2v0.6h-2.2V152.1z"/>
		<path class="st1" d="M153.8,152.1h2.2v0.6h-2.2V152.1z"/>
		<path class="st1" d="M155.9,152.1h2.2v0.6h-2.2V152.1z"/>
		<path class="st1" d="M158.1,152.1h2.2v0.6h-2.2V152.1z"/>
		<path class="st1" d="M160.3,152.1h2.2v0.6h-2.2V152.1z"/>
		<path class="st1" d="M162.4,152.1h2.2v0.6h-2.2V152.1z"/>
		<path class="st1" d="M164.6,152.1h2.2v0.6h-2.2V152.1z"/>
		<path class="st1" d="M166.8,152.1h2.2v0.6h-2.2V152.1z"/>
		<path class="st1" d="M168.9,152.1h2.2v0.6h-2.2V152.1z"/>
		<path class="st1" d="M171.1,152.1h2.2v0.6h-2.2V152.1z"/>
		<path class="st1" d="M173.2,152.1h2.2v0.6h-2.2V152.1z"/>
		<path class="st1" d="M175.4,152.1h2.2v0.6h-2.2V152.1z"/>
		<path class="st1" d="M177.6,152.1h2.2v0.6h-2.2V152.1z"/>
		<path class="st1" d="M179.7,152.1h2.2v0.6h-2.2V152.1z"/>
		<path class="st1" d="M181.9,152.1h2.2v0.6h-2.2V152.1z"/>
		<path class="st1" d="M184.1,152.1h2.2v0.6h-2.2V152.1z"/>
		<path class="st1" d="M186.2,152.1h2.2v0.6h-2.2V152.1z"/>
		<path class="st1" d="M193.7,152.1v0.6h-5.2v-0.6h1.2c-0.2-0.3-0.2-0.8-0.2-1.5c0-0.6,0.1-1.1,0.2-1.4c0.1-0.3,0.3-0.6,0.6-0.7
			c0.3-0.1,0.7-0.2,1.2-0.2c0.4,0,0.8,0,1.2,0.1l0.2,0v3.6H193.7z M190.4,152.1h1.8V149c-0.4,0-0.7,0-0.8,0c-0.4,0-0.6,0.1-0.8,0.2
			c-0.2,0.1-0.3,0.3-0.4,0.5c-0.1,0.2-0.1,0.6-0.1,1C190.1,151.4,190.2,151.9,190.4,152.1z M190.3,146.9h0.7v0.7h-0.7V146.9z
			 M191.4,146.9h0.7v0.7h-0.7V146.9z"/>
		<path class="st1" d="M196.9,152.1v0.6h-3.2v-0.6h1.3v-3.7h0.7v3.7H196.9z M194.4,146.9h0.7v0.7h-0.7V146.9z M195.5,146.9h0.7v0.7
			h-0.7V146.9z"/>
		<path class="st1" d="M202.9,152.1v0.6h-0.3c-0.1,0-0.2,0-0.3-0.1c-0.1-0.1-0.2-0.1-0.3-0.2v0.3h-5v-0.6h1.4
			c-0.1-0.5-0.1-1-0.1-1.5c0-0.4,0-0.8,0.1-1.1c0-0.4,0.1-0.7,0.2-0.9c0.1-0.1,0.3-0.1,0.6-0.2c0.3,0,0.5-0.1,0.8-0.1
			c0.7,0,1.2,0.2,1.6,0.5c0.3,0.3,0.5,0.9,0.5,1.7v1.2c0.2,0.2,0.4,0.3,0.7,0.3H202.9z M198.9,151.5c0,0.3,0.1,0.5,0.1,0.7h2.3v-1.6
			c0-0.6-0.1-1-0.4-1.3s-0.6-0.4-1.1-0.4c-0.3,0-0.5,0-0.8,0.1c-0.1,0.5-0.1,1-0.1,1.6C198.9,150.9,198.9,151.2,198.9,151.5z"/>
		<path class="st1" d="M204.6,146.5v6.2h-1.7v-0.6h1.1v-5.6H204.6z"/>
		<path class="st1" d="M206.2,146.5h0.7v6.2h-0.7V146.5z"/>
		<path class="st1" d="M215.5,148.4v4.3h-3.2c-0.6,0-1,0-1.3-0.1c-0.3-0.1-0.6-0.2-0.7-0.4c-0.1-0.2-0.2-0.5-0.2-0.8
			c0-0.4,0.1-1.1,0.3-2l0.5,0l-0.1,0.7c0,0.1,0,0.2-0.1,0.5c0,0.3,0,0.5,0,0.6c0,0.2,0.1,0.4,0.2,0.6c0.1,0.1,0.3,0.2,0.5,0.3
			c0.2,0.1,0.6,0.1,1,0.1h2.6v-3.7H215.5z M212,147.7h0.7v0.7H212V147.7z M213.1,147.7h0.7v0.7h-0.7V147.7z"/>
		<path class="st1" d="M217,146.5h0.7v6.2H217V146.5z"/>
		<path class="st1" d="M219.1,154.9c-0.1,0-0.1,0-0.2,0l-0.2,0v-0.6c0.3,0,0.5,0,0.5,0c0.3,0,0.5-0.1,0.6-0.3c0.1-0.2,0.2-0.5,0.2-1
			v-4.6h0.7v4.4c0,1.4-0.5,2.1-1.4,2.1C219.3,154.9,219.2,154.9,219.1,154.9z"/>
		<path class="st1" d="M223.7,152.1v0.6h-1.5v-6.2h0.7v5.6H223.7z"/>
		<path class="st1" d="M223.7,152.1h2.2v0.6h-2.2V152.1z"/>
		<path class="st1" d="M225.9,152.1h2.2v0.6h-2.2V152.1z"/>
		<path class="st1" d="M228,152.1h2.2v0.6H228V152.1z"/>
		<path class="st1" d="M230.2,152.1h2.2v0.6h-2.2V152.1z"/>
		<path class="st1" d="M232.4,152.1h2.2v0.6h-2.2V152.1z"/>
		<path class="st1" d="M234.5,152.1h2.2v0.6h-2.2V152.1z"/>
		<path class="st1" d="M236.7,152.1h2.2v0.6h-2.2V152.1z"/>
		<path class="st1" d="M238.9,152.1h2.2v0.6h-2.2V152.1z"/>
		<path class="st1" d="M241,152.1h2.2v0.6H241V152.1z"/>
		<path class="st1" d="M243.2,152.1h2.2v0.6h-2.2V152.1z"/>
		<path class="st1" d="M245.4,152.1h2.2v0.6h-2.2V152.1z"/>
		<path class="st1" d="M247.5,152.1h2.2v0.6h-2.2V152.1z"/>
		<path class="st1" d="M249.7,152.1h2.2v0.6h-2.2V152.1z"/>
		<path class="st1" d="M251.9,152.1h2.2v0.6h-2.2V152.1z"/>
		<path class="st1" d="M254,152.1h2.2v0.6H254V152.1z"/>
		<path class="st1" d="M256.2,152.1h2.2v0.6h-2.2V152.1z"/>
		<path class="st1" d="M258.3,152.1h2.2v0.6h-2.2V152.1z"/>
		<path class="st1" d="M260.5,152.1h2.2v0.6h-2.2V152.1z"/>
		<path class="st1" d="M262.7,152.1h2.2v0.6h-2.2V152.1z"/>
		<path class="st1" d="M264.8,152.1h2.2v0.6h-2.2V152.1z"/>
		<path class="st1" d="M267,152.1h2.2v0.6H267V152.1z"/>
		<path class="st1" d="M269.2,152.1h2.2v0.6h-2.2V152.1z"/>
		<path class="st1" d="M271.3,152.1h2.2v0.6h-2.2V152.1z"/>
		<path class="st1" d="M273.5,152.1h2.2v0.6h-2.2V152.1z"/>
		<path class="st1" d="M275.7,152.1h2.2v0.6h-2.2V152.1z"/>
		<path class="st1" d="M277.8,152.1h2.2v0.6h-2.2V152.1z"/>
		<path class="st1" d="M286.9,152.1v0.6H280v-0.6h1v-0.7c0-0.3,0.1-0.5,0.2-0.8c0.1-0.2,0.3-0.4,0.6-0.6c0.2-0.1,0.5-0.2,0.8-0.2
			c0.3,0,0.5,0.1,0.8,0.2c0.2,0.1,0.4,0.3,0.6,0.6c0.1,0.2,0.2,0.5,0.2,0.8v0.7h1.3v-1.2c0-0.9-0.2-1.5-0.6-1.8
			c-0.4-0.3-1-0.5-1.6-0.5c-0.3,0-0.5,0-0.8,0.1c-0.3,0-0.6,0.1-1,0.2l0-0.5c0.8-0.2,1.4-0.3,2-0.3c0.8,0,1.5,0.2,2,0.7
			c0.5,0.5,0.8,1.2,0.8,2.2v1.2H286.9z M281.9,150.7c-0.2,0.2-0.3,0.4-0.3,0.6v0.8h1.8v-0.8c0-0.2-0.1-0.5-0.3-0.6
			c-0.2-0.2-0.4-0.3-0.6-0.3S282.1,150.6,281.9,150.7z"/>
		<path class="st1" d="M292.9,152.1v0.6h-0.3c-0.1,0-0.2,0-0.3-0.1c-0.1-0.1-0.2-0.1-0.3-0.2v0.3h-5v-0.6h1.4
			c-0.1-0.5-0.1-1-0.1-1.5c0-0.4,0-0.8,0.1-1.1c0-0.4,0.1-0.7,0.2-0.9c0.1-0.1,0.3-0.1,0.6-0.2c0.3,0,0.5-0.1,0.8-0.1
			c0.7,0,1.2,0.2,1.6,0.5c0.3,0.3,0.5,0.9,0.5,1.7v1.2c0.2,0.2,0.4,0.3,0.7,0.3H292.9z M288.9,151.5c0,0.3,0.1,0.5,0.1,0.7h2.3v-1.6
			c0-0.6-0.1-1-0.4-1.3s-0.6-0.4-1.1-0.4c-0.3,0-0.5,0-0.8,0.1c-0.1,0.5-0.1,1-0.1,1.6C288.9,150.9,288.9,151.2,288.9,151.5z"/>
		<path class="st1" d="M294.7,146.5v6.2h-1.7v-0.6h1.1v-5.6H294.7z"/>
		<path class="st1" d="M296.2,146.5h0.7v6.2h-0.7V146.5z"/>
	</g>
	<g>
		<polygon class="st1" points="54.3,129.4 54.3,58.4 49.4,55.2 44.5,58.4 44.5,129.4 49.4,135 		"/>
	</g>
	<g>
		<polygon class="st0" points="8,114.8 8,117 8,118.2 17.9,118.2 17.9,117 17.9,110 17.9,103.6 17.9,78.2 8,83.9 8,93.8 		"/>
	</g>
	<g>
		<polygon class="st1" points="35.1,68.2 25.2,73.9 25.2,110.8 35.1,120.7 		"/>
	</g>
	<g>
		<polygon class="st1" points="74.1,74.3 64.3,68.6 64.3,120.1 74.1,110.2 		"/>
	</g>
	<g>
		<polygon class="st0" points="83.7,79.8 80.9,78.2 80.9,118.4 80.9,119.6 90.8,119.6 90.8,118.4 90.8,83.9 		"/>
	</g>
	<g>
		<path class="st0" d="M90.8,137.7v-22.8c0-2.7-2.2-4.9-4.9-4.9h-5.1l-16.5,16.5l-10,10l-4.9,4.9L18,110h-5.1
			c-2.7,0-4.8,2.2-4.8,4.8v22.8l12.2,12.2H8v10.1h12.3h24.2l-4.8-4.8l-2-2l-3.2-3.2L18,133.4v-9.1l31.4,31.4l7.1-7.1l7.8-7.8
			l9.8-9.8l6.7-6.7v9.1l-6.7,6.7l-3.1,3.1l-6.8,6.8l-3.2,3.2l-2,2l-4.8,4.8h36.5v-10.1H78.6l4.8-4.8L90.8,137.7z"/>
	</g>
</g>
</svg>
